<?xml version="1.0" encoding="utf-8"?>
<!-- Generator: Adobe Illustrator 26.5.0, SVG Export Plug-In . SVG Version: 6.00 Build 0)  -->
<svg version="1.1" id="Icons" xmlns="http://www.w3.org/2000/svg" xmlns:xlink="http://www.w3.org/1999/xlink" x="0px" y="0px"
	 viewBox="0 0 22 23" style="enable-background:new 0 0 22 23;" xml:space="preserve">
<style type="text/css">
	.st0{fill:#CE3A3A;}
</style>
<path class="st0" d="M21,4h-6V3c0-1.7-1.3-3-3-3h-2C8.3,0,7,1.3,7,3v1H1C0.4,4,0,4.4,0,5s0.4,1,1,1h2v14c0,1.7,1.3,3,3,3h10
	c1.7,0,3-1.3,3-3V6h2c0.6,0,1-0.4,1-1S21.6,4,21,4z M9,3c0-0.6,0.4-1,1-1h2c0.6,0,1,0.4,1,1v1H9V3z M8,18c0,0.6-0.4,1-1,1
	s-1-0.4-1-1v-8c0-0.6,0.4-1,1-1s1,0.4,1,1V18z M12,18c0,0.6-0.4,1-1,1s-1-0.4-1-1v-8c0-0.6,0.4-1,1-1s1,0.4,1,1V18z M16,18
	c0,0.6-0.4,1-1,1c-0.6,0-1-0.4-1-1v-8c0-0.6,0.4-1,1-1c0.6,0,1,0.4,1,1V18z"/>
</svg>
